<svg xmlns="http://www.w3.org/2000/svg" version="1.0" width="1029.000000pt" height="1029.000000pt" viewBox="0 0 1029.000000 1029.000000" preserveAspectRatio="xMidYMid meet">
<metadata fill="#ffffff">
Created by potrace 1.16, written by Peter Selinger 2001-2019
</metadata>
<g transform="translate(0.000000,1029.000000) scale(0.100000,-0.100000)" fill="#ffffff" stroke="none">
<path d="M4958 9796 c-14 -8 -45 -17 -67 -21 -23 -4 -41 -11 -41 -16 0 -5 -7 -9 -15 -9 -8 0 -15 -3 -15 -7 0 -5 -19 -17 -42 -28 -45 -21 -80 -50 -157 -127 -56 -57 -86 -91 -83 -98 4 -11 -10 -40 -19 -40 -5 0 -9 -7 -9 -15 0 -8 -4 -15 -9 -15 -7 0 -17 -30 -25 -75 -2 -10 -8 -25 -27 -73 -12 -29 -12 -309 0 -316 5 -3 12 -20 15 -38 14 -73 26 -108 37 -108 5 0 9 -9 9 -20 0 -11 5 -20 10 -20 6 0 10 -7 10 -15 0 -8 4 -15 9 -15 5 0 13 -10 16 -22 10 -29 84 -110 154 -168 l30 -25 1 -222 0 -223 -1450 0 c-960 0 -1450 -3 -1450 -10 0 -5 -16 -10 -35 -10 -19 0 -35 -4 -35 -9 0 -5 -16 -12 -35 -15 -19 -4 -35 -11 -35 -16 0 -6 -5 -10 -11 -10 -6 0 -30 -20 -52 -44 -58 -62 -67 -74 -67 -86 0 -5 -4 -10 -10 -10 -5 0 -10 -11 -10 -24 0 -13 -5 -26 -12 -28 -18 -6 -16 -204 2 -245 8 -18 18 -33 22 -33 5 0 8 -9 8 -20 0 -11 5 -20 10 -20 6 0 18 -16 27 -35 9 -19 22 -35 27 -35 6 0 23 -11 38 -25 15 -14 32 -25 38 -25 5 0 10 -4 10 -9 0 -5 19 -12 43 -16 23 -4 47 -11 53 -16 6 -5 89 -10 184 -11 163 -3 173 -4 157 -20 -9 -9 -17 -21 -17 -27 0 -18 -34 -91 -42 -91 -5 0 -8 -9 -8 -20 0 -11 -4 -20 -9 -20 -5 0 -11 -18 -15 -40 -3 -22 -11 -40 -16 -40 -6 0 -10 -9 -10 -20 0 -11 -4 -20 -10 -20 -5 0 -10 -7 -10 -15 0 -8 -4 -15 -10 -15 -5 0 -10 -9 -10 -20 0 -22 -31 -93 -42 -98 -5 -2 -8 -12 -8 -23 0 -10 -4 -19 -10 -19 -5 0 -12 -16 -16 -35 -3 -19 -10 -38 -15 -41 -5 -3 -9 -14 -9 -25 0 -10 -4 -19 -8 -19 -5 0 -15 -17 -23 -37 -8 -20 -24 -57 -37 -82 -12 -24 -22 -50 -22 -58 0 -7 -4 -13 -9 -13 -5 0 -12 -16 -15 -35 -4 -19 -11 -35 -16 -35 -6 0 -10 -9 -10 -20 0 -11 -3 -20 -8 -20 -7 0 -27 -51 -39 -97 -3 -13 -9 -23 -14 -23 -5 0 -9 -7 -9 -15 0 -8 -3 -15 -7 -15 -5 0 -16 -27 -27 -60 -10 -33 -22 -60 -27 -60 -5 0 -9 -9 -9 -20 0 -11 -4 -20 -10 -20 -5 0 -12 -16 -16 -35 -3 -19 -10 -35 -14 -35 -4 0 -14 -20 -21 -44 -7 -25 -16 -43 -20 -40 -4 2 -10 -14 -14 -36 -4 -22 -11 -40 -16 -40 -5 0 -9 -7 -9 -15 0 -8 -4 -15 -10 -15 -5 0 -10 -11 -10 -25 0 -14 -4 -25 -9 -25 -5 0 -12 -16 -15 -35 -4 -19 -11 -35 -16 -35 -6 0 -10 -9 -10 -20 0 -11 -3 -20 -7 -20 -8 0 -33 -47 -33 -62 0 -16 -35 -88 -42 -88 -5 0 -8 -9 -8 -20 0 -11 -5 -20 -11 -20 -6 0 -9 -7 -5 -15 3 -8 1 -15 -4 -15 -6 0 -10 -9 -10 -19 0 -11 -4 -23 -10 -26 -5 -3 -10 -15 -10 -26 0 -10 -4 -19 -9 -19 -5 0 -13 -15 -16 -32 -4 -18 -10 -35 -14 -38 -12 -9 -31 -50 -31 -65 0 -8 -4 -15 -10 -15 -5 0 -10 -7 -10 -15 0 -21 -33 -95 -42 -95 -5 0 -8 -9 -8 -20 0 -11 -4 -20 -9 -20 -5 0 -11 -18 -15 -40 -3 -22 -11 -40 -16 -40 -6 0 -10 -9 -10 -20 0 -11 -4 -20 -10 -20 -5 0 -10 -7 -10 -15 0 -8 -3 -15 -7 -15 -5 0 -16 -27 -27 -60 -10 -33 -22 -60 -27 -60 -5 0 -9 -9 -9 -20 0 -11 -4 -20 -10 -20 -5 0 -12 -16 -16 -35 -3 -19 -10 -38 -15 -41 -5 -3 -9 -14 -9 -25 0 -10 -4 -19 -10 -19 -5 0 -10 -8 -10 -17 -1 -33 -25 -53 -64 -53 -34 0 -97 -32 -136 -69 -20 -19 -22 -222 -2 -229 6 -2 12 -10 12 -18 0 -8 5 -14 10 -14 6 0 10 -9 10 -20 0 -11 5 -20 10 -20 6 0 9 -3 8 -7 -2 -9 32 -85 42 -93 4 -3 10 -14 15 -25 4 -11 9 -22 10 -25 2 -3 6 -15 10 -28 4 -12 11 -22 16 -22 5 0 9 -9 9 -20 0 -11 4 -20 9 -20 8 0 24 -35 24 -50 0 -3 12 -24 28 -47 16 -23 29 -46 29 -52 0 -6 5 -11 12 -11 6 0 9 -3 5 -6 -7 -7 16 -36 62 -78 19 -17 39 -36 45 -42 7 -6 22 -15 34 -18 12 -4 22 -12 22 -17 0 -5 7 -9 15 -9 8 0 15 -4 15 -10 0 -5 9 -10 20 -10 11 0 20 -4 20 -9 0 -5 26 -12 57 -16 32 -3 66 -10 75 -15 23 -13 2135 -13 2142 -1 3 4 33 11 66 15 33 4 60 11 60 16 0 6 9 10 20 10 11 0 20 5 20 10 0 6 9 10 20 10 11 0 20 4 20 9 0 5 10 13 22 17 26 8 148 132 148 151 0 7 5 13 10 13 6 0 10 7 10 15 0 8 3 15 8 15 4 0 13 9 20 21 10 15 10 19 1 14 -6 -5 -4 6 7 24 10 17 22 31 26 31 4 0 8 9 8 20 0 11 4 20 10 20 5 0 12 16 16 35 3 19 10 35 15 35 5 0 9 7 9 15 0 8 5 15 10 15 6 0 10 9 10 20 0 11 4 20 10 20 5 0 12 16 16 35 3 19 10 35 15 35 5 0 9 7 9 15 0 8 5 15 10 15 6 0 10 9 10 20 0 11 4 20 10 20 5 0 12 16 16 35 3 19 10 38 15 41 14 9 10 78 -7 120 -16 39 -69 94 -91 94 -7 0 -13 5 -13 10 0 6 -18 10 -41 10 -23 0 -47 7 -55 15 -9 8 -12 15 -8 15 5 0 3 5 -4 12 -7 7 -12 20 -12 30 0 10 -4 18 -10 18 -5 0 -10 11 -10 25 0 14 -4 25 -10 25 -5 0 -10 4 -10 10 0 17 -34 90 -42 90 -5 0 -8 9 -8 19 0 11 -4 22 -9 25 -5 3 -12 22 -15 41 -4 19 -11 35 -16 35 -6 0 -10 9 -10 20 0 11 -3 20 -8 20 -10 0 -42 75 -42 100 0 11 -4 20 -10 20 -5 0 -10 9 -10 20 0 11 -4 20 -10 20 -5 0 -10 7 -10 15 0 8 -4 15 -9 15 -5 0 -12 18 -16 40 -4 22 -11 38 -16 34 -5 -3 -9 6 -9 20 0 14 -4 26 -10 26 -5 0 -10 9 -10 20 0 11 -4 20 -10 20 -5 0 -12 16 -16 35 -3 19 -10 35 -15 35 -5 0 -9 7 -9 15 0 15 -19 56 -31 65 -4 3 -10 20 -14 38 -3 17 -11 32 -16 32 -5 0 -9 9 -9 20 0 11 -4 20 -10 20 -5 0 -10 9 -10 19 0 11 -4 22 -9 25 -5 3 -12 22 -15 41 -4 19 -11 35 -16 35 -6 0 -10 9 -10 20 0 11 -4 20 -9 20 -9 0 -26 48 -23 63 1 4 -3 7 -8 7 -6 0 -10 11 -10 25 0 14 -4 25 -10 25 -5 0 -10 7 -10 15 0 8 -4 15 -9 15 -5 0 -12 16 -15 35 -4 19 -11 35 -16 35 -6 0 -10 9 -10 19 0 11 -4 23 -10 26 -5 3 -10 15 -10 26 0 10 -4 19 -9 19 -5 0 -13 15 -16 33 -4 17 -11 34 -14 37 -10 7 -49 93 -57 124 -3 14 -10 26 -15 26 -5 0 -9 9 -9 20 0 11 -4 20 -9 20 -5 0 -17 27 -27 60 -10 33 -21 60 -26 60 -4 0 -8 9 -8 20 0 11 -3 20 -7 20 -5 0 -16 21 -27 48 -35 90 -41 102 -48 102 -5 0 -8 9 -8 20 0 11 -5 20 -11 20 -5 0 -8 4 -4 9 3 5 1 12 -5 16 -5 3 -10 15 -10 26 0 10 -4 19 -10 19 -5 0 -10 11 -10 25 0 14 -4 25 -10 25 -5 0 -12 16 -16 35 -3 19 -10 35 -15 35 -5 0 -9 7 -9 15 0 8 -3 15 -8 15 -4 0 -13 18 -20 40 -18 60 -46 120 -54 120 -5 0 -8 9 -8 20 0 11 -4 20 -10 20 -5 0 -13 18 -16 40 -4 22 -10 40 -15 40 -5 0 -9 9 -9 20 0 11 -4 20 -10 20 -5 0 -10 7 -10 15 0 8 -4 15 -9 15 -5 0 -12 16 -15 35 -4 19 -11 35 -16 35 -6 0 -10 5 -10 10 0 7 348 10 1023 10 l1022 0 -3 -2430 -2 -2429 -532 -3 c-414 -2 -532 -6 -536 -15 -2 -7 -12 -13 -23 -13 -10 0 -19 -3 -19 -8 0 -4 -20 -16 -44 -27 -24 -11 -42 -23 -40 -27 3 -5 0 -8 -6 -8 -15 0 -78 -67 -85 -91 -4 -10 -11 -19 -16 -19 -5 0 -9 -7 -9 -15 0 -8 -4 -15 -8 -15 -18 0 -35 -113 -39 -252 l-4 -148 -114 0 c-65 0 -116 -4 -120 -10 -3 -5 -24 -10 -45 -10 -21 0 -41 -4 -44 -9 -3 -5 -22 -12 -41 -15 -19 -4 -35 -10 -35 -14 0 -4 -12 -13 -28 -19 -53 -24 -149 -130 -159 -175 -3 -16 -9 -28 -14 -28 -5 0 -9 -11 -9 -25 0 -14 -4 -25 -10 -25 -6 0 -10 -95 -10 -264 l0 -264 36 -36 36 -36 2323 0 2323 0 36 36 36 36 0 264 c0 169 -4 264 -10 264 -5 0 -10 11 -10 25 0 14 -4 25 -9 25 -5 0 -11 12 -14 28 -10 45 -106 151 -159 175 -16 6 -28 15 -28 19 0 4 -16 10 -35 14 -19 3 -38 10 -41 15 -3 5 -23 9 -44 9 -21 0 -42 5 -45 10 -4 6 -55 10 -120 10 l-114 0 -4 148 c-4 139 -21 252 -39 252 -4 0 -8 7 -8 15 0 8 -4 15 -9 15 -5 0 -12 9 -16 19 -7 24 -70 91 -85 91 -6 0 -9 3 -6 8 2 4 -16 16 -40 27 -24 11 -44 23 -44 27 0 5 -9 8 -19 8 -11 0 -21 6 -23 13 -4 9 -122 13 -536 15 l-532 3 -2 1918 c-3 1697 -5 1919 -18 1933 -45 45 -160 87 -160 58 0 -5 -8 -10 -19 -10 -17 0 -47 -25 -78 -64 -10 -12 -13 -412 -13 -1926 l0 -1910 -115 0 -115 0 0 2530 c0 2010 -3 2534 -12 2546 -41 48 -64 64 -93 64 -15 0 -24 4 -20 10 4 7 -505 10 -1519 10 -838 0 -1531 3 -1540 6 -9 3 -16 15 -16 25 0 10 -4 19 -10 19 -5 0 -10 11 -10 25 0 14 5 25 10 25 6 0 10 7 10 15 0 8 7 15 15 15 8 0 15 5 15 10 0 7 518 10 1535 10 844 0 1535 3 1535 8 0 4 14 13 31 21 17 7 35 24 41 37 6 13 15 24 20 24 4 0 8 122 8 270 l0 270 29 0 c17 0 33 -4 36 -10 3 -5 26 -10 50 -10 24 0 47 5 50 10 3 6 19 10 36 10 l29 0 0 -270 c0 -148 4 -270 8 -270 5 0 14 -11 20 -24 6 -13 24 -30 41 -37 17 -8 31 -17 31 -21 0 -5 691 -8 1535 -8 1017 0 1535 -3 1535 -10 0 -5 7 -10 15 -10 8 0 15 -7 15 -15 0 -8 5 -15 10 -15 6 0 10 -11 10 -25 0 -14 -4 -25 -10 -25 -5 0 -10 -9 -10 -19 0 -10 -7 -22 -16 -25 -9 -3 -702 -6 -1540 -6 -1014 0 -1523 -3 -1519 -10 4 -6 -5 -10 -20 -10 -25 0 -32 -4 -67 -37 -38 -36 -38 -35 -38 -397 0 -228 4 -363 11 -378 5 -13 27 -35 49 -50 48 -35 118 -38 152 -9 13 11 34 29 48 41 l25 22 0 264 0 264 1023 0 c675 0 1022 -3 1022 -10 0 -5 -4 -10 -10 -10 -5 0 -12 -16 -16 -35 -3 -19 -10 -35 -15 -35 -5 0 -9 -7 -9 -15 0 -8 -4 -15 -10 -15 -5 0 -10 -9 -10 -20 0 -11 -4 -20 -9 -20 -5 0 -11 -18 -15 -40 -3 -22 -11 -40 -16 -40 -6 0 -10 -9 -10 -20 0 -11 -3 -20 -8 -20 -8 0 -36 -60 -54 -120 -7 -22 -16 -40 -20 -40 -5 0 -8 -7 -8 -15 0 -8 -4 -15 -9 -15 -5 0 -12 -16 -15 -35 -4 -19 -11 -35 -16 -35 -6 0 -10 -11 -10 -25 0 -14 -4 -25 -10 -25 -5 0 -10 -9 -10 -19 0 -11 -5 -23 -10 -26 -6 -4 -8 -11 -5 -16 4 -5 1 -9 -4 -9 -6 0 -11 -9 -11 -20 0 -11 -3 -20 -8 -20 -7 0 -13 -12 -48 -102 -11 -27 -22 -48 -26 -48 -5 0 -8 -9 -8 -20 0 -11 -4 -20 -8 -20 -5 0 -16 -27 -26 -60 -10 -33 -22 -60 -27 -60 -5 0 -9 -9 -9 -20 0 -11 -4 -20 -9 -20 -5 0 -12 -12 -15 -26 -8 -31 -47 -117 -57 -124 -3 -3 -10 -20 -14 -37 -3 -18 -11 -33 -16 -33 -5 0 -9 -9 -9 -19 0 -11 -4 -23 -10 -26 -5 -3 -10 -15 -10 -26 0 -10 -4 -19 -10 -19 -5 0 -12 -16 -16 -35 -3 -19 -10 -35 -15 -35 -5 0 -9 -7 -9 -15 0 -8 -4 -15 -10 -15 -5 0 -10 -11 -10 -25 0 -14 -4 -25 -10 -25 -5 0 -9 -3 -8 -7 3 -15 -14 -63 -23 -63 -5 0 -9 -9 -9 -20 0 -11 -4 -20 -10 -20 -5 0 -12 -16 -16 -35 -3 -19 -10 -38 -15 -41 -5 -3 -9 -14 -9 -25 0 -10 -4 -19 -10 -19 -5 0 -10 -9 -10 -20 0 -11 -4 -20 -9 -20 -5 0 -13 -15 -16 -32 -4 -18 -10 -35 -14 -38 -12 -9 -31 -50 -31 -65 0 -8 -4 -15 -9 -15 -5 0 -12 -16 -15 -35 -4 -19 -11 -35 -16 -35 -6 0 -10 -9 -10 -20 0 -11 -4 -20 -10 -20 -5 0 -10 -12 -10 -26 0 -14 -4 -23 -9 -20 -5 4 -12 -12 -16 -34 -4 -22 -11 -40 -16 -40 -5 0 -9 -7 -9 -15 0 -8 -4 -15 -10 -15 -5 0 -10 -9 -10 -20 0 -11 -4 -20 -10 -20 -5 0 -10 -9 -10 -20 0 -25 -32 -100 -42 -100 -5 0 -8 -9 -8 -20 0 -11 -4 -20 -10 -20 -5 0 -12 -16 -16 -35 -3 -19 -10 -38 -15 -41 -5 -3 -9 -14 -9 -25 0 -10 -3 -19 -8 -19 -8 0 -42 -73 -42 -90 0 -6 -4 -10 -10 -10 -5 0 -10 -11 -10 -25 0 -14 -4 -25 -10 -25 -5 0 -10 -8 -10 -18 0 -10 -5 -23 -12 -30 -7 -7 -9 -12 -4 -12 4 0 1 -7 -8 -15 -8 -8 -32 -15 -55 -15 -23 0 -41 -4 -41 -10 0 -5 -6 -10 -12 -10 -23 0 -76 -55 -92 -94 -17 -42 -21 -111 -7 -120 5 -3 12 -22 15 -41 4 -19 11 -35 16 -35 6 0 10 -9 10 -20 0 -11 5 -20 10 -20 6 0 10 -7 10 -15 0 -8 4 -15 9 -15 5 0 12 -16 15 -35 4 -19 11 -35 16 -35 6 0 10 -9 10 -20 0 -11 5 -20 10 -20 6 0 10 -7 10 -15 0 -8 4 -15 9 -15 5 0 12 -16 15 -35 4 -19 11 -35 16 -35 6 0 10 -9 10 -20 0 -11 4 -20 8 -20 4 0 16 -14 26 -31 11 -18 13 -29 7 -24 -9 5 -9 1 1 -14 7 -12 16 -21 20 -21 5 0 8 -7 8 -15 0 -8 5 -15 10 -15 6 0 10 -6 10 -13 0 -19 122 -143 148 -151 12 -4 22 -12 22 -17 0 -5 9 -9 20 -9 11 0 20 -4 20 -10 0 -5 9 -10 20 -10 11 0 20 -4 20 -10 0 -5 27 -12 60 -16 33 -4 63 -11 66 -15 7 -12 2119 -12 2142 1 9 5 43 12 75 15 31 4 57 11 57 16 0 5 9 9 20 9 11 0 20 5 20 10 0 6 7 10 15 10 8 0 15 4 15 9 0 5 10 13 22 16 21 7 77 53 107 89 9 10 21 24 28 31 7 7 9 15 6 19 -4 3 -1 6 5 6 7 0 12 5 12 11 0 6 14 31 32 57 18 26 31 49 30 52 -4 10 10 40 19 40 5 0 9 9 9 20 0 11 4 20 9 20 5 0 12 10 16 23 4 12 8 24 10 27 1 3 6 14 10 25 5 11 11 22 15 25 10 8 44 84 42 93 -1 4 2 7 8 7 5 0 10 9 10 20 0 11 5 20 10 20 6 0 10 6 10 14 0 8 6 16 12 18 20 7 18 210 -2 229 -39 37 -102 69 -136 69 -39 0 -63 20 -64 53 0 9 -4 17 -10 17 -5 0 -10 9 -10 19 0 11 -4 22 -9 25 -5 3 -12 22 -15 41 -4 19 -11 35 -16 35 -6 0 -10 9 -10 20 0 11 -4 20 -9 20 -5 0 -17 27 -27 60 -11 33 -22 60 -26 60 -5 0 -8 7 -8 15 0 8 -4 15 -10 15 -5 0 -10 9 -10 20 0 11 -4 20 -10 20 -5 0 -13 18 -16 40 -4 22 -10 40 -15 40 -5 0 -9 9 -9 20 0 11 -3 20 -8 20 -9 0 -42 74 -42 95 0 8 -4 15 -10 15 -5 0 -10 7 -10 15 0 15 -19 56 -31 65 -4 3 -10 20 -14 38 -3 17 -11 32 -16 32 -5 0 -9 9 -9 19 0 11 -4 23 -10 26 -5 3 -10 15 -10 26 0 10 -4 19 -10 19 -5 0 -7 7 -4 15 4 8 1 15 -5 15 -6 0 -11 9 -11 20 0 11 -4 20 -10 20 -5 0 -10 7 -10 15 0 8 -4 15 -9 15 -5 0 -11 15 -15 32 -8 42 -29 88 -38 88 -5 0 -8 9 -8 20 0 11 -4 20 -10 20 -5 0 -12 16 -16 35 -3 19 -10 35 -15 35 -5 0 -9 11 -9 25 0 14 -4 25 -10 25 -5 0 -10 7 -10 15 0 8 -4 15 -9 15 -5 0 -12 18 -16 40 -4 22 -10 38 -14 36 -4 -3 -13 15 -20 40 -7 24 -17 44 -21 44 -4 0 -11 16 -14 35 -4 19 -11 35 -16 35 -6 0 -10 9 -10 20 0 11 -4 20 -9 20 -5 0 -17 27 -27 60 -11 33 -22 60 -26 60 -5 0 -8 7 -8 15 0 8 -3 15 -8 15 -7 0 -27 51 -39 98 -3 12 -9 22 -14 22 -5 0 -9 9 -9 20 0 11 -4 20 -10 20 -5 0 -12 16 -16 35 -3 19 -10 35 -15 35 -5 0 -9 6 -9 13 0 8 -10 34 -22 58 -13 25 -29 62 -37 82 -8 20 -18 37 -23 37 -4 0 -8 9 -8 19 0 11 -4 22 -9 25 -5 3 -12 22 -15 41 -4 19 -11 35 -16 35 -6 0 -10 9 -10 19 0 11 -3 21 -7 23 -12 5 -43 76 -43 98 0 11 -4 20 -10 20 -5 0 -10 7 -10 15 0 8 -4 15 -10 15 -5 0 -10 9 -10 20 0 11 -4 20 -10 20 -5 0 -13 18 -16 40 -4 22 -10 40 -15 40 -5 0 -9 9 -9 20 0 11 -3 20 -8 20 -8 0 -42 73 -42 91 0 6 -8 18 -17 27 -16 16 -6 17 157 20 95 1 178 6 184 11 6 5 30 12 54 16 23 4 42 11 42 16 0 5 5 9 10 9 6 0 23 11 38 25 15 14 32 25 38 25 5 0 18 16 27 35 9 19 21 35 27 35 5 0 10 9 10 20 0 11 3 20 8 20 4 0 14 15 22 33 18 41 20 239 2 245 -7 2 -12 15 -12 28 0 13 -4 24 -10 24 -5 0 -10 5 -10 10 0 12 -9 24 -67 86 -22 24 -46 44 -52 44 -6 0 -11 4 -11 10 0 5 -16 12 -35 16 -19 3 -35 10 -35 15 0 5 -16 9 -35 9 -19 0 -35 5 -35 10 0 7 -490 10 -1450 10 l-1450 0 0 223 1 222 30 25 c70 58 144 139 154 168 3 12 11 22 16 22 5 0 9 7 9 15 0 8 5 15 10 15 6 0 10 9 10 20 0 11 4 20 9 20 11 0 23 35 37 108 3 18 10 35 15 38 12 7 12 287 0 316 -19 48 -25 63 -27 73 -8 45 -18 75 -25 75 -5 0 -9 7 -9 15 0 8 -4 15 -9 15 -9 0 -23 29 -19 40 3 7 -27 41 -83 98 -77 77 -112 106 -157 127 -23 11 -42 23 -42 28 0 4 -7 7 -15 7 -8 0 -15 4 -15 9 0 5 -18 12 -41 16 -22 4 -53 13 -67 21 -20 10 -70 14 -187 14 -117 0 -167 -4 -187 -14z m198 -265 c-3 -4 27 -11 67 -14 68 -5 127 -23 127 -39 0 -5 5 -8 10 -8 12 0 30 -14 63 -48 12 -12 34 -34 50 -49 15 -14 27 -35 27 -45 0 -10 5 -18 10 -18 6 0 10 -6 10 -14 0 -8 5 -16 10 -18 6 -2 13 -36 17 -75 3 -40 10 -70 14 -67 5 3 9 -14 9 -38 0 -28 -3 -38 -9 -29 -5 8 -10 -10 -13 -50 -3 -35 -10 -65 -16 -67 -7 -2 -12 -12 -12 -23 0 -10 -4 -19 -10 -19 -5 0 -10 -7 -10 -15 0 -8 -13 -28 -30 -45 -16 -16 -27 -30 -23 -30 12 0 -52 -50 -72 -56 -11 -4 -27 -15 -36 -25 -9 -11 -23 -19 -31 -19 -8 0 -20 -6 -26 -12 -9 -9 -51 -13 -137 -13 -86 0 -128 4 -136 13 -7 6 -19 12 -27 12 -8 0 -22 8 -31 19 -9 10 -25 21 -36 25 -20 6 -84 56 -72 56 4 0 -7 14 -23 30 -17 17 -30 37 -30 45 0 8 -4 15 -10 15 -5 0 -10 9 -10 19 0 11 -5 21 -12 23 -6 2 -13 32 -16 67 -3 40 -8 58 -13 50 -6 -9 -9 1 -9 29 0 24 4 41 9 38 4 -3 11 27 14 67 4 39 11 73 17 75 5 2 10 10 10 18 0 8 5 14 10 14 6 0 10 8 10 18 0 10 12 31 28 45 15 15 37 37 49 49 33 34 51 48 63 48 5 0 10 3 10 8 0 16 59 34 127 39 40 3 70 10 67 14 -3 5 2 9 11 9 9 0 14 -4 11 -9z m-2704 -2341 c6 0 9 -2 6 -5 -3 -3 1 -22 9 -43 7 -20 16 -45 20 -54 3 -10 9 -18 14 -18 5 0 9 -9 9 -20 0 -11 4 -20 10 -20 5 0 12 -16 16 -35 3 -19 10 -35 15 -35 5 0 9 -11 9 -25 0 -14 5 -25 10 -25 6 0 10 -7 10 -15 0 -8 4 -15 9 -15 5 0 12 -16 15 -35 4 -19 11 -35 16 -35 6 0 10 -9 10 -19 0 -11 5 -23 10 -26 6 -3 10 -15 10 -26 0 -10 4 -19 10 -19 5 0 12 -16 16 -35 3 -19 9 -35 13 -35 6 0 44 -83 47 -100 2 -15 40 -90 45 -90 4 0 10 -18 14 -40 4 -22 11 -38 16 -34 5 3 9 -6 9 -20 0 -14 5 -26 10 -26 6 0 10 -9 10 -20 0 -11 4 -20 10 -20 5 0 12 -16 16 -35 3 -19 10 -35 15 -35 5 0 9 -7 9 -15 0 -15 19 -56 31 -65 4 -3 10 -20 14 -37 3 -18 11 -33 16 -33 5 0 9 -9 9 -20 0 -11 5 -20 10 -20 6 0 10 -9 10 -19 0 -11 4 -22 9 -25 5 -3 12 -21 15 -40 4 -19 10 -36 14 -38 12 -5 62 -116 62 -138 0 -11 5 -20 10 -20 6 0 10 -7 10 -15 0 -8 5 -15 10 -15 6 0 10 -8 10 -18 0 -10 7 -27 15 -38 8 -10 15 -29 15 -41 0 -13 5 -23 10 -23 6 0 10 -9 10 -20 0 -11 5 -20 10 -20 6 0 10 -4 10 -10 0 -17 34 -90 42 -90 5 0 8 -9 8 -19 0 -11 4 -22 9 -25 5 -3 12 -22 15 -41 4 -19 11 -35 16 -35 6 0 10 -9 10 -20 0 -11 4 -20 9 -20 5 0 17 -27 27 -60 10 -33 21 -60 26 -60 4 0 8 -9 8 -20 0 -11 3 -20 8 -20 7 0 42 -72 42 -88 0 -15 25 -62 33 -62 4 0 7 -9 7 -20 0 -11 4 -20 10 -20 5 0 12 -16 16 -35 3 -19 10 -35 15 -35 5 0 9 -11 9 -25 0 -14 3 -25 8 -25 8 0 42 -73 42 -90 0 -6 4 -10 8 -10 4 0 14 -20 21 -45 7 -25 17 -45 22 -45 5 0 6 -6 3 -13 -2 -7 5 -23 16 -35 l21 -22 -1201 0 -1201 0 7 23 c3 12 11 24 15 25 5 2 9 12 9 22 0 10 5 22 10 25 6 3 10 15 10 26 0 10 4 19 10 19 5 0 12 16 16 35 3 19 10 35 15 35 5 0 9 7 9 15 0 8 5 15 10 15 6 0 10 11 10 25 0 14 5 25 10 25 6 0 10 7 10 15 0 21 33 95 42 95 5 0 8 9 8 20 0 11 4 20 9 20 5 0 11 18 15 40 3 22 11 40 16 40 6 0 10 9 10 20 0 11 5 20 10 20 6 0 10 7 10 15 0 8 3 15 8 15 4 0 15 27 26 60 10 33 22 60 27 60 5 0 9 9 9 20 0 11 5 20 11 20 6 0 9 7 5 15 -3 8 -1 15 4 15 6 0 10 9 10 20 0 11 5 20 10 20 6 0 10 11 10 25 0 14 4 25 9 25 9 0 26 48 23 63 -1 4 2 7 8 7 5 0 10 7 10 15 0 8 5 15 10 15 6 0 10 9 10 20 0 11 5 20 10 20 6 0 10 9 10 20 0 22 31 93 43 98 4 2 7 12 7 23 0 10 4 19 10 19 5 0 12 16 16 35 3 19 10 38 15 41 5 3 9 14 9 25 0 10 5 19 10 19 6 0 10 7 10 15 0 8 5 15 10 15 6 0 10 8 10 18 0 9 7 30 15 46 8 15 15 35 15 42 0 8 5 14 10 14 6 0 10 9 10 20 0 11 4 20 9 20 5 0 13 15 16 33 4 17 10 34 14 37 13 11 31 51 31 70 0 12 4 19 9 16 5 -4 12 12 16 34 4 22 11 40 16 40 5 0 9 7 9 15 0 8 5 15 10 15 6 0 10 8 10 18 0 10 3 22 8 26 4 4 7 11 8 14 3 26 18 62 25 62 5 0 9 9 9 20 0 11 4 20 9 20 5 0 12 12 15 28 7 29 46 114 57 122 4 3 10 20 14 38 3 17 11 32 16 32 5 0 9 9 9 19 0 11 5 23 10 26 6 3 10 15 10 26 0 10 4 19 9 19 5 0 13 15 16 33 4 17 10 34 14 37 12 9 31 50 31 65 0 8 5 15 10 15 6 0 10 7 10 15 0 21 33 95 42 95 5 0 8 9 8 20 0 11 4 20 9 20 5 0 12 18 16 40 4 22 11 40 16 40 5 0 9 8 9 18 0 25 14 38 18 18 2 -9 8 -16 14 -16z m5418 -1 c0 -10 4 -19 9 -19 5 0 12 -18 16 -40 4 -22 11 -40 16 -40 5 0 9 -9 9 -20 0 -11 3 -20 8 -20 9 0 42 -74 42 -95 0 -8 5 -15 10 -15 6 0 10 -7 10 -15 0 -15 19 -56 31 -65 4 -3 10 -20 14 -37 3 -18 11 -33 16 -33 5 0 9 -9 9 -19 0 -11 5 -23 10 -26 6 -3 10 -15 10 -26 0 -10 4 -19 9 -19 5 0 13 -15 16 -32 4 -18 10 -35 14 -38 11 -8 50 -93 57 -122 3 -16 10 -28 15 -28 5 0 9 -9 9 -20 0 -11 4 -20 9 -20 7 0 22 -36 25 -62 1 -3 4 -10 9 -14 4 -4 7 -16 7 -26 0 -10 5 -18 10 -18 6 0 10 -7 10 -15 0 -8 4 -15 9 -15 5 0 12 -18 16 -40 4 -22 11 -38 16 -34 5 3 9 -4 9 -16 0 -19 18 -59 31 -70 4 -3 10 -20 14 -37 3 -18 11 -33 16 -33 5 0 9 -9 9 -20 0 -11 5 -20 10 -20 6 0 10 -6 10 -14 0 -7 7 -27 15 -42 8 -16 15 -37 15 -46 0 -10 5 -18 10 -18 6 0 10 -7 10 -15 0 -8 5 -15 10 -15 6 0 10 -9 10 -19 0 -11 4 -22 9 -25 5 -3 12 -22 15 -41 4 -19 11 -35 16 -35 6 0 10 -9 10 -19 0 -11 3 -21 8 -23 11 -5 42 -76 42 -98 0 -11 5 -20 10 -20 6 0 10 -9 10 -20 0 -11 5 -20 10 -20 6 0 10 -7 10 -15 0 -8 5 -15 10 -15 6 0 9 -3 8 -7 -3 -15 14 -63 23 -63 5 0 9 -11 9 -25 0 -14 5 -25 10 -25 6 0 10 -9 10 -20 0 -11 4 -20 10 -20 5 0 7 -7 4 -15 -4 -8 -1 -15 5 -15 6 0 11 -9 11 -20 0 -11 4 -20 9 -20 5 0 17 -27 27 -60 11 -33 22 -60 27 -60 4 0 7 -7 7 -15 0 -8 5 -15 10 -15 6 0 10 -9 10 -20 0 -11 4 -20 10 -20 5 0 13 -18 16 -40 4 -22 10 -40 15 -40 5 0 9 -9 9 -20 0 -11 3 -20 8 -20 9 0 42 -74 42 -95 0 -8 5 -15 10 -15 6 0 10 -11 10 -25 0 -14 5 -25 10 -25 6 0 10 -7 10 -15 0 -8 4 -15 9 -15 5 0 12 -16 15 -35 4 -19 11 -35 16 -35 6 0 10 -9 10 -19 0 -11 5 -23 10 -26 6 -3 10 -15 10 -25 0 -10 4 -20 9 -22 4 -1 12 -13 15 -25 l7 -23 -1201 0 -1201 0 21 22 c11 12 18 28 16 35 -3 7 -2 13 3 13 5 0 15 20 22 45 7 25 17 45 21 45 4 0 8 4 8 10 0 17 34 90 42 90 5 0 8 11 8 25 0 14 4 25 9 25 5 0 12 16 15 35 4 19 11 35 16 35 6 0 10 9 10 20 0 11 3 20 8 20 7 0 32 47 32 62 0 16 35 88 42 88 5 0 8 9 8 20 0 11 4 20 8 20 5 0 16 27 26 60 10 33 22 60 27 60 5 0 9 9 9 20 0 11 4 20 10 20 5 0 12 16 16 35 3 19 10 38 15 41 5 3 9 14 9 25 0 10 3 19 8 19 8 0 42 73 42 90 0 6 5 10 10 10 6 0 10 9 10 20 0 11 5 20 10 20 6 0 10 10 10 23 0 12 7 31 15 41 8 11 15 28 15 38 0 10 5 18 10 18 6 0 10 7 10 15 0 8 5 15 10 15 6 0 10 9 10 20 0 22 50 133 62 138 4 2 10 19 14 38 3 19 10 37 15 40 5 3 9 14 9 25 0 10 5 19 10 19 6 0 10 9 10 20 0 11 4 20 9 20 5 0 13 15 16 33 4 17 10 34 14 37 12 9 31 50 31 65 0 8 4 15 9 15 5 0 12 16 15 35 4 19 11 35 16 35 6 0 10 9 10 20 0 11 5 20 10 20 6 0 10 12 10 26 0 14 4 23 9 20 5 -4 12 12 16 34 4 22 10 40 14 40 5 0 43 75 45 90 3 17 41 100 47 100 4 0 10 16 13 35 4 19 11 35 16 35 6 0 10 9 10 19 0 11 5 23 10 26 6 3 10 15 10 26 0 10 4 19 10 19 5 0 12 16 16 35 3 19 10 35 15 35 5 0 9 7 9 15 0 8 5 15 10 15 6 0 10 11 10 25 0 14 4 25 9 25 5 0 12 16 15 35 4 19 11 35 16 35 6 0 10 9 10 20 0 11 4 20 9 20 5 0 11 8 14 18 4 9 13 34 20 54 8 21 12 40 9 43 -3 3 0 5 6 5 7 0 12 7 12 16 0 8 5 12 10 9 6 -3 10 -15 10 -26z m-4066 -2904 c-4 -8 -10 -15 -15 -15 -5 0 -9 -9 -9 -20 0 -11 -3 -20 -8 -20 -8 0 -42 -73 -42 -90 0 -6 -4 -10 -10 -10 -5 0 -10 -9 -10 -20 0 -11 -4 -20 -10 -20 -5 0 -10 -7 -10 -15 0 -8 -4 -15 -9 -15 -5 0 -12 -15 -15 -33 -3 -18 -15 -39 -26 -47 -11 -8 -20 -18 -20 -23 0 -10 -26 -37 -35 -37 -3 0 -15 -8 -26 -19 -11 -10 -34 -22 -51 -25 -17 -3 -505 -6 -1085 -6 -980 0 -1058 1 -1091 17 -41 19 -92 64 -92 80 0 6 -7 16 -14 23 -16 13 -56 90 -56 107 0 6 -3 13 -7 15 -10 4 -63 110 -63 126 0 6 -4 12 -10 12 -5 0 -10 7 -10 15 0 8 -4 15 -10 15 -5 0 -10 5 -10 10 0 7 465 10 1375 10 1218 0 1374 -2 1369 -15z m5426 5 c0 -5 -4 -10 -10 -10 -5 0 -10 -7 -10 -15 0 -8 -4 -15 -10 -15 -5 0 -10 -6 -10 -12 0 -16 -53 -122 -62 -126 -5 -2 -8 -9 -8 -15 0 -17 -40 -94 -56 -107 -7 -7 -14 -17 -14 -23 0 -16 -51 -61 -92 -80 -33 -16 -111 -17 -1091 -17 -580 0 -1068 3 -1085 6 -17 3 -40 15 -51 25 -11 11 -23 19 -26 19 -9 0 -35 27 -35 37 0 5 -9 15 -20 23 -11 8 -23 29 -26 47 -3 18 -10 33 -15 33 -5 0 -9 7 -9 15 0 8 -4 15 -10 15 -5 0 -10 9 -10 20 0 11 -4 20 -10 20 -5 0 -10 4 -10 10 0 17 -34 90 -42 90 -5 0 -8 9 -8 20 0 11 -4 20 -9 20 -5 0 -11 7 -15 15 -5 13 151 15 1369 15 910 0 1375 -3 1375 -10z m-2667 -2142 c20 -18 37 -39 37 -45 0 -7 5 -13 10 -13 6 0 10 -50 10 -130 l0 -130 -1005 0 c-663 0 -1005 -3 -1005 -10 0 -5 -11 -10 -25 -10 -14 0 -25 -4 -25 -9 0 -5 -9 -11 -21 -14 -11 -3 -23 -15 -26 -26 -3 -12 -9 -21 -14 -21 -5 0 -9 -28 -9 -63 0 -58 2 -64 35 -95 20 -17 40 -32 45 -32 6 0 10 -4 10 -10 0 -7 434 -10 1281 -10 1409 0 1325 4 1362 -61 14 -25 17 -55 17 -159 0 -93 3 -130 13 -133 6 -3 -942 -5 -2108 -5 -1166 0 -2114 2 -2107 5 9 3 12 40 12 133 0 104 3 134 18 159 34 61 34 61 541 61 301 0 461 3 461 10 0 6 7 10 15 10 8 0 15 3 15 8 0 4 14 16 30 27 28 19 30 24 30 81 0 33 -5 71 -12 85 -13 29 -59 59 -89 59 -10 0 -19 5 -19 10 0 6 -68 10 -185 10 l-185 0 0 130 c0 80 4 130 10 130 6 0 10 6 10 13 0 6 17 27 37 45 l38 32 1380 0 1380 0 38 -32z" fill="#ffffff"/>
</g>
</svg>