<svg xmlns="http://www.w3.org/2000/svg" version="1.0" width="1029.000000pt" height="1029.000000pt" viewBox="0 0 1029.000000 1029.000000" preserveAspectRatio="xMidYMid meet">
<metadata fill="#ffffff">
Created by potrace 1.16, written by Peter Selinger 2001-2019
</metadata>
<g transform="translate(0.000000,1029.000000) scale(0.100000,-0.100000)" fill="#ffffff" stroke="none">
<path d="M4965 10243 c-102 -9 -258 -38 -369 -68 -770 -211 -1364 -819 -1571 -1609 -66 -250 -79 -365 -79 -691 0 -300 8 -401 54 -637 l19 -97 -31 -61 c-45 -91 -63 -211 -50 -331 21 -182 87 -317 210 -429 111 -102 256 -160 400 -160 l75 0 -71 -35 c-140 -70 -185 -150 -242 -428 -21 -105 -95 -159 -267 -196 -108 -23 -159 -47 -220 -104 -99 -91 -139 -186 -149 -349 -3 -57 -10 -118 -16 -136 -15 -50 -60 -95 -169 -173 -108 -76 -152 -124 -197 -214 -66 -132 -78 -251 -42 -403 11 -46 20 -94 20 -108 0 -13 -18 -66 -39 -117 -22 -50 -45 -120 -51 -154 -18 -93 -9 -215 22 -291 l26 -63 -33 -72 c-143 -310 -255 -853 -319 -1552 -34 -360 -66 -945 -69 -1260 l-2 -180 31 -55 c17 -30 50 -70 73 -87 88 -68 -176 -63 3231 -63 3407 0 3143 -5 3231 63 23 17 56 57 73 87 l31 55 -2 180 c-2 193 -20 627 -29 712 l-5 52 92 47 c335 168 626 432 819 743 296 477 384 1052 245 1597 -172 671 -676 1213 -1336 1434 -176 59 -351 91 -570 105 l-106 7 -13 36 c-28 80 -119 181 -200 222 -23 12 -83 30 -133 41 -172 37 -246 91 -267 196 -58 281 -102 358 -246 429 -41 21 -74 37 -74 38 0 1 51 1 113 2 101 1 120 4 192 32 250 100 405 336 405 618 0 114 -13 180 -52 263 l-30 64 16 81 c164 838 18 1581 -427 2171 -83 110 -302 327 -417 412 -329 244 -696 389 -1092 432 -90 10 -300 12 -393 4z m373 -254 c443 -48 864 -257 1183 -586 218 -224 368 -475 469 -781 122 -372 148 -748 84 -1197 -9 -60 -17 -111 -18 -112 0 -1 -26 5 -56 13 -30 8 -69 14 -87 14 -23 0 -35 6 -44 23 -6 12 -24 36 -38 52 -26 28 -29 44 -55 240 -24 189 -26 228 -20 391 11 284 -13 363 -150 500 -59 59 -116 101 -211 159 -114 69 -150 98 -290 235 -88 86 -183 170 -212 188 -133 85 -260 99 -499 58 -195 -34 -303 -34 -498 0 -239 41 -366 27 -499 -58 -29 -18 -124 -102 -212 -188 -140 -137 -176 -166 -290 -235 -155 -94 -276 -207 -317 -295 -44 -94 -51 -155 -44 -367 5 -160 3 -215 -13 -335 -11 -78 -23 -167 -27 -197 -5 -42 -15 -66 -45 -104 -22 -27 -39 -53 -39 -58 0 -5 -15 -9 -33 -9 -19 0 -56 -7 -82 -15 -27 -8 -50 -13 -52 -12 -1 2 -9 46 -17 97 -57 358 -44 756 34 1061 54 212 173 482 285 649 292 435 729 733 1230 839 187 40 381 50 563 30z m-467 -1054 c197 -34 350 -34 553 1 171 30 239 28 306 -6 24 -12 118 -95 210 -184 146 -141 183 -171 304 -246 75 -47 158 -105 182 -129 80 -78 79 -74 80 -361 0 -186 5 -283 17 -360 9 -58 17 -111 17 -117 0 -10 -43 -13 -180 -13 -390 0 -747 -65 -955 -173 -33 -17 -86 -57 -117 -89 l-58 -58 -92 0 c-92 0 -93 1 -115 31 -32 47 -128 114 -212 149 -198 83 -471 129 -818 137 -134 3 -243 9 -243 13 0 4 9 74 20 156 16 117 19 195 17 364 -2 243 -2 243 77 321 24 24 107 82 182 129 121 75 158 105 304 246 240 233 249 236 521 189z m-968 -1685 c11 -53 39 -70 115 -70 37 0 81 4 98 9 l31 9 -5 -48 c-5 -54 9 -106 40 -146 44 -56 150 -80 221 -50 40 16 95 77 103 114 11 49 13 52 49 52 39 0 91 22 97 42 3 8 25 2 70 -19 82 -38 108 -64 108 -104 0 -79 -133 -249 -260 -334 -91 -61 -190 -87 -330 -88 -193 -1 -337 59 -435 181 -53 67 -124 206 -160 314 -23 72 -24 80 -11 112 16 40 29 44 126 49 36 2 81 4 101 5 33 2 37 -1 42 -28z m2727 1 c37 -26 37 -72 0 -172 -68 -182 -163 -320 -268 -388 -150 -96 -458 -99 -619 -6 -27 16 -88 69 -138 119 -89 90 -136 161 -150 224 -6 29 -3 37 28 66 36 34 140 80 145 65 7 -17 61 -39 97 -39 36 0 38 -3 49 -52 8 -37 63 -98 103 -114 71 -30 177 -6 221 50 31 40 45 92 40 146 l-5 48 31 -9 c17 -5 61 -9 98 -9 77 0 104 17 115 71 l6 30 111 -6 c82 -5 118 -11 136 -24z m-3227 -213 c18 -56 16 -68 -14 -68 -63 0 -116 -71 -106 -142 10 -72 70 -114 147 -104 88 12 92 7 118 -149 13 -75 26 -144 29 -152 5 -14 -2 -15 -53 -11 -74 7 -150 44 -216 105 -135 127 -166 383 -60 497 22 24 113 76 133 76 3 0 13 -23 22 -52z m3597 13 c78 -46 110 -114 110 -231 0 -215 -147 -390 -341 -407 -59 -6 -60 -6 -55 18 16 66 35 170 41 222 7 51 11 60 34 68 14 6 45 8 69 4 104 -16 178 61 151 157 -12 46 -56 83 -107 92 l-40 6 20 55 c19 51 23 54 47 49 14 -3 46 -18 71 -33z m-1771 -148 c35 -116 228 -339 365 -422 133 -79 270 -114 456 -114 137 0 245 18 345 58 32 14 61 23 63 21 7 -7 -57 -233 -93 -332 -97 -257 -205 -417 -389 -571 -183 -154 -385 -267 -617 -345 -109 -37 -135 -42 -214 -42 -79 0 -105 5 -214 42 -232 78 -434 191 -617 345 -184 154 -292 314 -389 571 -31 83 -95 304 -95 328 0 4 30 -4 66 -18 204 -77 479 -78 680 -3 181 68 423 310 479 479 l17 50 72 0 72 0 13 -47z m-1456 -1075 c111 -228 249 -389 482 -563 47 -35 119 -83 160 -107 54 -31 75 -49 75 -63 0 -43 -52 -231 -81 -291 -36 -77 -122 -172 -182 -204 l-45 -24 -33 29 c-82 69 -165 73 -351 17 -215 -65 -320 -149 -409 -325 l-49 -100 -163 -77 c-321 -153 -595 -316 -721 -430 l-39 -35 8 35 c4 19 25 78 48 130 52 121 58 201 28 337 -29 128 -27 165 12 243 26 52 45 74 97 113 255 188 293 245 310 473 16 203 46 243 211 277 144 30 252 87 328 173 55 62 80 121 106 250 13 61 30 127 38 146 18 42 73 84 114 87 6 1 31 -41 56 -91z m2861 59 c37 -26 52 -65 81 -202 35 -171 86 -254 202 -331 68 -45 132 -70 232 -91 42 -8 88 -21 103 -29 29 -15 58 -41 58 -53 0 -4 -35 -13 -77 -20 -120 -20 -295 -74 -440 -135 -73 -31 -142 -56 -152 -56 -37 0 -76 22 -224 126 -82 58 -164 112 -183 120 -100 42 -238 -14 -280 -113 -22 -52 -16 -122 26 -298 22 -92 40 -172 40 -178 0 -15 -76 59 -110 109 -16 23 -40 70 -54 105 -25 63 -66 218 -66 251 0 10 31 34 80 63 290 170 517 406 646 671 51 104 54 106 118 61z m-1814 -919 c103 -36 254 -68 325 -68 75 0 227 33 336 73 l67 24 26 -106 c38 -152 109 -292 193 -381 36 -39 92 -87 125 -107 32 -20 58 -38 58 -41 0 -3 -27 -46 -59 -96 -60 -93 -157 -279 -182 -349 -12 -34 -47 -63 -292 -244 l-277 -205 -33 24 c-24 19 -869 642 -885 654 -2 1 -1 41 3 87 l7 85 42 18 c77 35 181 111 244 178 79 86 151 228 189 379 22 88 30 106 42 101 9 -3 41 -15 71 -26z m2920 -28 c247 -22 450 -79 675 -191 189 -94 304 -177 466 -339 101 -101 154 -164 211 -250 126 -190 205 -363 257 -562 48 -184 56 -248 56 -458 -1 -209 -15 -313 -70 -503 -117 -402 -391 -769 -745 -999 -330 -215 -740 -321 -1112 -289 -364 32 -697 161 -975 378 -340 265 -567 635 -664 1083 -20 91 -23 134 -23 330 0 207 2 235 26 351 61 283 168 518 345 756 119 159 129 249 63 513 -22 88 -40 162 -40 165 0 3 42 -23 93 -59 131 -94 168 -114 233 -131 116 -30 186 -18 371 64 167 73 372 125 558 141 133 11 150 11 275 0z m-3753 -552 c-18 -73 -29 -487 -24 -870 8 -616 46 -1020 183 -1907 25 -161 43 -295 41 -298 -5 -5 -159 258 -271 462 -252 460 -430 897 -492 1211 l-17 87 29 24 c16 13 66 47 111 76 95 59 123 99 123 171 0 26 -7 60 -15 75 -15 29 -70 81 -85 81 -5 0 -34 9 -65 21 l-55 21 6 51 c36 293 133 592 223 685 50 51 83 69 196 103 112 35 119 35 112 7z m-759 -620 c-10 -57 -21 -150 -24 -208 -8 -123 1 -149 66 -201 l40 -33 -54 -51 c-93 -89 -111 -145 -90 -275 84 -522 413 -1218 1064 -2250 l66 -105 17 -120 c9 -66 17 -128 17 -137 0 -17 -39 -18 -674 -18 l-673 0 -6 133 c-4 72 -23 647 -43 1277 -39 1229 -36 1189 -91 1225 -32 21 -107 21 -138 1 -14 -9 -32 -28 -42 -42 -16 -25 -15 -90 21 -1193 20 -641 40 -1219 43 -1283 l6 -118 -325 0 c-248 0 -328 3 -342 13 -16 12 -17 29 -6 277 59 1430 190 2261 420 2663 71 125 176 219 380 342 98 59 368 204 380 205 3 0 -2 -46 -12 -102z m1507 -317 c378 -280 349 -261 405 -261 52 0 51 -1 313 194 65 48 121 85 124 83 2 -3 0 -48 -6 -101 -50 -442 53 -903 288 -1291 l73 -120 -116 -770 c-64 -424 -119 -780 -121 -792 l-5 -23 -550 0 -550 0 -5 23 c-8 34 -89 597 -134 927 -149 1087 -226 1829 -238 2294 l-6 228 119 -88 c65 -48 250 -185 409 -303z m1521 -1852 c6 -10 -155 -293 -163 -285 -4 4 44 338 53 364 3 10 20 1 54 -28 27 -23 53 -46 56 -51z m300 -217 c164 -101 429 -203 639 -245 l120 -25 -2 -218 c-1 -121 -5 -288 -8 -371 l-7 -153 -674 0 c-635 0 -674 1 -674 18 0 9 8 71 17 137 l17 120 94 150 c118 188 359 587 374 620 10 23 13 24 32 12 12 -8 44 -28 72 -45z m1648 -344 c28 -622 28 -641 10 -655 -14 -10 -93 -13 -342 -13 l-325 0 7 123 c3 67 9 229 12 359 l7 236 96 6 c145 9 315 33 421 60 52 13 98 24 101 25 3 1 9 -63 13 -141z" fill="#ffffff"/>
<path d="M4155 7914 c-11 -2 -45 -9 -75 -15 -86 -17 -191 -71 -249 -126 -46 -44 -51 -54 -51 -92 0 -31 6 -48 25 -66 32 -33 67 -32 147 4 36 17 96 35 134 42 128 22 339 -7 470 -67 127 -57 214 -18 214 95 0 113 -222 217 -480 226 -63 2 -124 2 -135 -1z" fill="#ffffff"/>
<path d="M5863 7906 c-214 -41 -353 -126 -353 -217 0 -113 87 -152 214 -95 131 60 342 89 470 67 38 -7 98 -25 134 -42 80 -36 115 -37 147 -4 19 18 25 35 25 66 0 38 -5 48 -51 92 -53 51 -142 99 -231 123 -76 21 -268 26 -355 10z" fill="#ffffff"/>
<path d="M4949 6687 c-59 -40 -74 -97 -42 -164 31 -66 180 -114 289 -94 91 17 158 52 177 94 32 67 17 124 -42 164 -42 28 -71 29 -138 3 -53 -20 -53 -20 -103 0 -66 26 -99 25 -141 -3z" fill="#ffffff"/>
<path d="M4870 6331 c-80 -25 -142 -84 -161 -153 -28 -103 37 -275 141 -371 88 -81 145 -101 295 -102 115 0 123 1 187 32 117 55 193 149 233 287 38 129 1 234 -100 285 -49 26 -52 26 -310 28 -143 1 -271 -2 -285 -6z m450 -254 c0 -29 -59 -94 -99 -111 -106 -42 -214 0 -251 99 l-10 25 180 0 c144 0 180 -3 180 -13z" fill="#ffffff"/>
<path d="M7480 4488 c-157 -61 -294 -308 -330 -591 -5 -45 -11 -99 -12 -119 l-3 -37 -60 41 c-79 54 -204 112 -285 133 -85 22 -206 16 -273 -13 -168 -75 -257 -284 -197 -462 39 -114 137 -262 258 -387 l60 -63 -69 -36 c-141 -74 -212 -189 -213 -344 -1 -75 3 -93 31 -152 77 -163 214 -229 481 -231 l122 0 24 -53 c34 -75 97 -138 175 -177 54 -26 80 -33 147 -35 44 -2 97 1 117 6 l37 10 0 -84 c0 -130 31 -182 113 -191 54 -6 101 15 122 57 10 20 15 58 15 121 0 90 0 91 23 85 155 -45 290 -14 394 90 39 40 93 131 93 160 0 7 42 11 123 11 210 2 326 40 412 135 73 82 90 127 90 248 0 93 -3 111 -27 163 -33 70 -105 142 -184 182 -32 17 -61 31 -63 32 -2 1 33 42 79 90 89 95 174 217 215 305 92 202 23 419 -163 510 -82 41 -183 49 -283 24 -74 -19 -221 -87 -296 -138 l-51 -35 -7 71 c-20 223 -83 413 -181 547 -38 52 -78 85 -144 119 -66 35 -213 39 -290 8z m207 -255 c60 -57 114 -181 144 -328 20 -98 17 -380 -4 -518 -9 -59 -17 -116 -17 -127 0 -32 36 -60 75 -60 39 0 38 -1 145 124 165 194 409 356 534 356 45 0 97 -37 115 -83 12 -33 12 -42 -3 -82 -60 -156 -248 -357 -498 -532 -84 -59 -99 -83 -78 -133 14 -35 21 -37 149 -45 173 -12 324 -66 363 -130 37 -61 15 -136 -52 -170 -67 -35 -229 -36 -443 -4 -97 14 -113 10 -135 -34 -10 -22 -9 -33 8 -77 24 -60 25 -91 6 -129 -31 -59 -116 -83 -167 -47 -13 9 -53 51 -89 93 -100 118 -152 121 -235 13 -67 -87 -98 -110 -150 -110 -35 0 -52 6 -79 31 -46 39 -54 82 -30 149 13 37 15 57 8 77 -15 44 -49 50 -169 29 -122 -21 -276 -24 -357 -7 -101 21 -148 93 -111 168 40 83 176 135 391 149 112 8 132 19 132 73 0 46 -1 47 -85 106 -228 159 -389 325 -472 483 -45 86 -42 131 13 181 34 32 39 33 91 28 62 -7 172 -55 261 -116 78 -52 215 -183 298 -282 61 -73 69 -79 103 -79 45 0 74 26 74 67 1 16 -7 89 -17 163 -24 176 -18 414 14 540 26 107 82 221 127 260 46 40 99 41 140 3z" fill="#ffffff"/>
</g>
</svg>