<?xml version="1.0" encoding="UTF-8"?><svg id="Layer_1" xmlns="http://www.w3.org/2000/svg" viewBox="0 0 1828.8 181.61"><defs><style>.cls-1{fill:#fff;}</style></defs><path class="cls-1" d="M147.98,107.84h-20.49c-3.48,0-6.76,1.8-8.48,4.82-7.53,13.3-22.79,24.24-41.68,24.24-24.02,0-41.16-19.93-35.82-50.2,5.33-30.26,29.55-50.44,53.57-50.44,17.25,0,29,9.77,32.53,21.79,1.2,4.09,5.11,6.79,9.37,6.79h22.22c6.33,0,10.94-5.86,9.64-12.06C162.4,21.97,139.65,0,101.48,0,53.44,0,9.79,39.15,1.41,86.7c-8.39,47.55,21.5,86.46,69.53,86.46,36.84,0,68.12-21.05,85.61-50.53,3.87-6.53-.98-14.8-8.57-14.8Z"/><path class="cls-1" d="M285.96,10.01c-1.14-4.34-5.06-7.37-9.55-7.37h-16.64c-3.43,0-6.61,1.78-8.41,4.7l-91.24,148.37c-4.05,6.58,.69,15.05,8.41,15.05h18.08c3.45,0,6.66-1.8,8.44-4.76l12.87-21.23c1.79-2.95,4.99-4.76,8.44-4.76h54.97c4.52,0,8.46,3.07,9.57,7.45l4.01,15.84c1.11,4.38,5.05,7.45,9.57,7.45h20.83c6.47,0,11.19-6.12,9.55-12.38L285.96,10.01Zm-24.46,96.15h-17.83c-5.42,0-8.8-5.89-6.06-10.56l12.75-21.79c3.21-5.48,11.45-4.22,12.89,1.95l5.07,21.79c1.02,4.4-2.32,8.61-6.84,8.61Z"/><path class="cls-1" d="M508.83,2.64h-20.05c-4.79,0-8.89,3.44-9.73,8.16l-12.67,71.84c-1.61,9.15-13.83,11.21-18.35,3.09L404.53,7.71c-1.74-3.13-5.04-5.07-8.63-5.07h-22.18c-4.79,0-8.89,3.44-9.73,8.16l-26.16,148.37c-1.07,6.05,3.59,11.59,9.73,11.59h20.06c4.79,0,8.89-3.44,9.72-8.16l12.19-69.16c1.62-9.18,13.89-11.21,18.38-3.04l41.31,75.24c1.73,3.16,5.05,5.12,8.66,5.12h24.78c4.79,0,8.89-3.44,9.72-8.16l26.16-148.37c1.07-6.05-3.58-11.59-9.72-11.59Z"/><path class="cls-1" d="M633.73,10.01c-1.14-4.34-5.06-7.37-9.55-7.37h-16.64c-3.43,0-6.61,1.78-8.41,4.7l-91.24,148.37c-4.05,6.58,.69,15.05,8.41,15.05h18.09c3.45,0,6.66-1.8,8.44-4.76l12.87-21.23c1.79-2.95,4.99-4.76,8.44-4.76h54.96c4.52,0,8.46,3.07,9.57,7.45l4.02,15.84c1.11,4.38,5.05,7.45,9.57,7.45h20.83c6.47,0,11.19-6.12,9.55-12.38L633.73,10.01Zm-24.46,96.15h-17.83c-5.42,0-8.8-5.89-6.06-10.56l12.76-21.79c3.21-5.48,11.45-4.22,12.89,1.95l5.07,21.79c1.02,4.4-2.32,8.61-6.84,8.61Z"/><path class="cls-1" d="M963.94,0c-48.04,0-91.69,39.15-100.07,86.7-8.39,47.55,21.5,86.46,69.53,86.46s91.65-38.91,100.03-86.46c8.38-47.55-21.46-86.7-69.5-86.7Zm29.39,86.7c-5.34,30.26-29.51,50.2-53.53,50.2s-41.16-19.93-35.82-50.2c5.33-30.26,29.55-50.44,53.57-50.44s41.11,20.17,35.78,50.44Z"/><path class="cls-1" d="M1456,8.44c-35.12,0-67.82,20.96-86.19,50.8,2.02,1.27,3.92,2.74,5.49,4.61,4.4,5.24,6.24,12.11,5.05,18.85l-2.77,15.73c-1.95,11.04-11.49,19.05-22.69,19.08,2.96,36.79,30.36,64.1,70.58,64.1,48.04,0,91.64-38.91,100.03-86.46,8.38-47.56-21.46-86.7-69.5-86.7Zm29.39,86.7c-5.34,30.26-29.51,50.2-53.53,50.2s-41.16-19.93-35.82-50.2c5.33-30.26,29.55-50.44,53.56-50.44s41.12,20.17,35.78,50.44Z"/><path class="cls-1" d="M1648.59,113.2c18.94-7.79,33.45-24.52,37.43-47.12,6.22-35.31-18.4-55-53.47-55h-67.37c-4.79,0-8.89,3.44-9.73,8.16l-26.16,148.37c-1.07,6.05,3.59,11.59,9.72,11.59h20.06c4.79,0,8.89-3.44,9.72-8.16l7.75-43.96c.83-4.72,4.93-8.16,9.72-8.16h3.06c3.66,0,7.02,2.02,8.73,5.26l26.32,49.77c1.71,3.23,5.07,5.26,8.73,5.26h21.8c7.45,0,12.22-7.94,8.72-14.52l-20.08-37.7c-2.76-5.18-.39-11.55,5.03-13.79Zm-28.43-29.1h-24.26c-6.14,0-10.79-5.54-9.72-11.59l3.08-17.48c.83-4.72,4.93-8.16,9.73-8.16h27.26c13.45,0,22.08,5.53,19.75,18.73-2.24,12.73-12.87,18.49-25.84,18.49Z"/><path class="cls-1" d="M1772.31,8.44c-40.83,0-67.46,21.61-72.24,48.75-5.68,32.19,17.89,41.55,45.42,51.64,17.19,6.01,34.24,11.53,32.29,22.58-1.74,9.85-13.11,14.41-27.04,14.41-12.74,0-23.9-4.29-27.09-13.42-1.34-3.84-5.12-6.28-9.19-6.28h-21.63c-5.95,0-10.6,5.23-9.81,11.13,3.7,27.89,28.21,44.35,59.97,44.35,34.59,0,68.63-18.73,74.48-51.88,5.55-31.46-20.12-42.51-52.2-54.04-13.08-4.8-27.45-9.13-25.76-18.73,1.31-7.44,9.93-12.73,25.54-12.73,10.31,0,19.87,4.25,22.92,11.9,1.55,3.89,5.12,6.59,9.31,6.59h21.63c5.86,0,10.58-5.09,9.82-10.91-3.6-27.79-28.63-43.37-56.4-43.37Z"/><path class="cls-1" d="M783.58,2.64h-62.05c-4.81,0-8.93,3.46-9.77,8.2l-25.86,146.66c17.5-17.37,26.06-29.61,28.04-32.59,.12-.19,.25-.38,.38-.57,.06-.09,.09-.14,.09-.14h0c4.76-7.15,10.34-13.79,16.76-19.9,13.09-12.45,28.49-20.83,46.66-26.25-7.89-.65-23.82,5.21-35.51,12.33-10.71,6.53-19.17,15.36-26.67,25.45-.32-8.46,2.21-16.17,5.47-23.67,6.63-15.27,17.91-25.62,33.41-31.61,19.8-7.66,40.4-9.5,61.36-8.62,6.64,.28,13.26,.98,19.99,1.49-8.51,6.81-17.34,12.51-24.41,19.91-7.08,7.4-12.9,16.17-18.38,24.9-12.14,19.35-26.07,36.09-51.08,37.41-6.38,.34-12.95-.81-19.27-2.07-3.49-.69-5.99-.33-8.32,2.16-.49,.53-1,1.05-1.5,1.58-5.51,5.97-23.82,27.24-10.7,33.42-.12,.02-.22,.02-.34,.04h53.74c53.56,0,87.3-33.38,96.33-84.54,8.68-49.24-14.8-83.58-68.36-83.58Z"/><path class="cls-1" d="M1357.62,67.71h-30.22c-6.83,0-12-6.17-10.82-12.89l7.08-39.64c1.19-6.73-3.99-12.89-10.82-12.89h-17.66c-5.33,0-9.89,3.83-10.82,9.08l-8.42,47.27c-.93,5.25-5.49,9.08-10.82,9.08h-38.25c-5.33,0-9.89,3.83-10.82,9.08l-2.77,15.73c-1.19,6.73,3.99,12.89,10.82,12.89h30.51c6.83,0,12.01,6.17,10.82,12.89l-6.96,39.57c-1.19,6.73,3.99,12.89,10.82,12.89h17.66c5.33,0,9.89-3.83,10.82-9.08l8.31-47.2c.93-5.25,5.49-9.08,10.82-9.08h37.97c5.33,0,9.89-3.83,10.82-9.08l2.77-15.73c1.19-6.73-3.99-12.89-10.82-12.89Z"/><path class="cls-1" d="M1192.02,107.84h-20.49c-3.48,0-6.76,1.8-8.48,4.82-7.53,13.3-22.79,24.24-41.68,24.24-24.02,0-41.16-19.93-35.82-50.2,5.33-30.26,29.55-50.44,53.57-50.44,17.25,0,29,9.77,32.53,21.79,1.2,4.09,5.11,6.79,9.37,6.79h22.21c6.33,0,10.94-5.86,9.64-12.06-6.44-30.82-29.19-52.79-67.37-52.79-48.04,0-91.69,39.15-100.07,86.7-8.39,47.55,21.5,86.46,69.53,86.46,36.84,0,68.12-21.05,85.61-50.53,3.87-6.53-.98-14.8-8.57-14.8Z"/></svg>