<svg id="Objects" xmlns="http://www.w3.org/2000/svg" viewBox="0 0 616.68 138.08"><defs><style>.cls-1,.cls-2{fill:#f1f2f2;}.cls-2{font-size:58px;font-family:NewakeDemo, Newake;}.cls-3{letter-spacing:-0.05em;}.cls-4{letter-spacing:-0.02em;}.cls-5{letter-spacing:-0.02em;}.cls-6{letter-spacing:0em;}.cls-7{letter-spacing:-0.03em;}.cls-8{letter-spacing:-0.03em;}</style></defs><path class="cls-1" d="M236.13,352.74h-12.7s-.06,6.93-.15,8.26h12.85a8.5,8.5,0,0,1,8.72,8.25V389.9a8.5,8.5,0,0,1-8.72,8.26H211.81a38.79,38.79,0,0,1-11.62-1.37c-4-1.28-6-3.41-7-6.29-2,.08-3.79.09-5.38.09-1.19,0-2.38,0-3.53,0,1.42,6.4,5.29,12.28,15.88,14.67a46.59,46.59,0,0,0,7.26,1v19.08a8.5,8.5,0,0,1-8.71,8.26H177a8.5,8.5,0,0,1-8.71-8.26v-23c0-18.58,7.38-18.58,19.6-18.58,12,0,28.33,0,28.33-26.85V333.81c0-9.11-7.82-16.51-17.43-16.51H177c-9.61,0-17.43,7.41-17.43,16.51v18.93h-20c-9.61,0-17.42,7.41-17.42,16.51V389.9c0,9.11,7.81,16.52,17.42,16.52h12.71v-4.13c0-1.45.06-2.81.15-4.13H139.55a8.5,8.5,0,0,1-8.71-8.26V369.25a8.5,8.5,0,0,1,8.71-8.25h24.33a39.12,39.12,0,0,1,11.62,1.36c4,1.28,6,3.41,7,6.29,2-.08,3.79-.09,5.37-.09,1.19,0,2.39,0,3.55,0-1.43-6.4-5.31-12.27-15.89-14.66a46.52,46.52,0,0,0-7.26-1V333.81a8.5,8.5,0,0,1,8.71-8.25h21.79a8.51,8.51,0,0,1,8.71,8.26v23.05c0,18.59-7.38,18.59-19.61,18.59-12,0-28.32,0-28.32,26.84v23c0,9.11,7.82,16.52,17.43,16.52h21.79c9.61,0,17.43-7.41,17.43-16.52V406.42h20c9.61,0,17.44-7.41,17.44-16.52V369.25C253.57,360.15,245.74,352.74,236.13,352.74Z" transform="translate(-122.13 -317.3)"/><text class="cls-2" transform="translate(160.68 85.79)"><tspan class="cls-3">C</tspan><tspan class="cls-4" x="37.99" y="0">AN</tspan><tspan class="cls-5" x="113.04" y="0">A</tspan><tspan class="cls-4" x="151.73" y="0">D</tspan><tspan class="cls-6" x="188.44" y="0">O</tspan><tspan x="231.25" y="0">C</tspan><tspan class="cls-7" x="272.14" y="0">T</tspan><tspan x="297.6" y="0">O</tspan><tspan class="cls-8" x="340.69" y="0">R</tspan><tspan x="372.59" y="0">S</tspan></text></svg>